<?xml version="1.0" encoding="UTF-8" standalone="no"?>
<svg width="121px" height="40px" viewBox="0 0 121 40" version="1.1" xmlns="http://www.w3.org/2000/svg" xmlns:xlink="http://www.w3.org/1999/xlink">
    <!-- Generator: Sketch 3.8.3 (29802) - http://www.bohemiancoding.com/sketch -->
    <title>Group 2</title>
    <desc>Created with Sketch.</desc>
    <defs></defs>
    <g id="Welcome" stroke="none" stroke-width="1" fill="none" fill-rule="evenodd">
        <g id="home2_mobile" transform="translate(-22.000000, -7.000000)">
            <g id="Group-2" transform="translate(22.000000, 7.000000)">
                <g id="Group-22" transform="translate(49.000000, 13.000000)" fill="#57585A">
                    <path d="M3.51365756,9.27082298 C3.51365756,8.78673679 3.39826406,8.60193361 3.07499857,8.60193361 L2.49803105,8.60193361 L2.49803105,13.1913487 L3.05208355,13.1913487 C3.37493984,13.1913487 3.51365756,12.9840585 3.51365756,12.5228682 L3.51365756,9.27082298 L3.51365756,9.27082298 Z M3.51365756,2.83664696 C3.51365756,2.37545674 3.37493984,2.16775759 3.05208355,2.16775759 L2.49803105,2.16775759 L2.49803105,6.64187516 L3.07499857,6.64187516 C3.39826406,6.64187516 3.51365756,6.45748085 3.51365756,5.9729858 L3.51365756,2.83664696 L3.51365756,2.83664696 Z M3.3291098,0 C4.50595986,0 5.82152764,0.691785336 5.82152764,2.69804458 L5.82152764,5.67329392 C5.82152764,6.45748085 5.63697988,7.08016942 4.96753387,7.54135964 C5.63697988,8.00254987 5.82152764,8.62523844 5.82152764,9.40942536 L5.82152764,12.6610618 C5.82152764,14.667321 4.50595986,15.3591063 3.3291098,15.3591063 L0.097682489,15.3591063 L0.097682489,0 L3.3291098,0 L3.3291098,0 Z" id="Fill-1"></path>
                    <path d="M15.5136576,2.83664696 C15.5136576,2.37545674 15.3749398,2.16775759 15.0520835,2.16775759 L14.4980311,2.16775759 L14.4980311,6.91867107 L15.0749986,6.91867107 C15.3982641,6.91867107 15.5136576,6.73386789 15.5136576,6.2497817 L15.5136576,2.83664696 Z M18.1910324,15.3591063 L15.9060773,15.3591063 C15.6982053,14.7597226 15.5828118,14.137034 15.5828118,12.9840585 L15.5828118,9.64002047 C15.5828118,9.20172622 15.4674183,8.94782628 15.0520835,8.94782628 L14.4980311,8.94782628 L14.4980311,15.3591063 L12.0976825,15.3591063 L12.0976825,0 L15.3291098,0 C16.5063691,0 17.8219368,0.691785336 17.8219368,2.69804458 L17.8219368,6.20358091 C17.8219368,6.91867107 17.6369799,7.51805482 17.0137731,7.9334531 C17.6369799,8.34844253 17.8910911,8.92493031 17.8910911,9.68581241 L17.8910911,12.7992553 C17.8910911,13.7678365 18.0293996,14.6211202 18.1910324,15.3591063 L18.1910324,15.3591063 Z" id="Fill-3"></path>
                    <polygon id="Fill-5" points="23.0976825 15.3595152 25.4980311 15.3595152 25.4980311 0 23.0976825 0"></polygon>
                    <path d="M33.4059618,0 L34.4907425,4.08202411 C34.7448538,5.05060535 35.3447363,7.6104564 35.5063691,8.53283685 L35.5526083,8.53283685 C35.4601298,7.67996202 35.3447363,4.10492008 35.3447363,3.29783719 L35.3447363,0 L37.6067763,0 L37.6067763,15.3595152 L35.2064278,15.3595152 L34.1908013,11.5309822 C33.93669,10.6086017 33.3826375,8.11784742 33.221414,7.21836294 L33.1751748,7.21836294 C33.2676532,8.02544584 33.3597225,11.5309822 33.3597225,12.2918643 L33.3826375,15.3595152 L31.0976825,15.3595152 L31.0976825,0 L33.4059618,0 Z" id="Fill-7"></path>
                    <path d="M50.4909736,15.3595152 L47.9981466,15.3595152 L47.0979136,12.1307748 C46.9596051,11.6466886 46.4980311,10.2398131 46.4288768,9.77862286 L46.4055526,9.77862286 C46.4747068,10.2398131 46.4980311,11.6466886 46.4980311,12.1769756 L46.4980311,15.3595152 L44.0976825,15.3595152 L44.0976825,0 L46.4980311,0 L46.4980311,2.28346401 C46.4980311,2.76795906 46.4517918,4.22062649 46.3826375,4.61271995 L46.4288768,4.61271995 C46.4980311,4.10532893 46.9362808,2.76795906 47.0749986,2.3296648 L47.8365139,0 L50.3064259,0 L47.7673596,6.54988243 L50.4909736,15.3595152 Z" id="Fill-8"></path>
                    <polygon id="Fill-9" points="55.0976825 15.3595152 55.0976825 0 60.1062516 0 60.1062516 2.21395839 57.4980311 2.21395839 57.4980311 6.41128005 59.2293428 6.41128005 59.2293428 8.51034974 57.4980311 8.51034974 57.4980311 13.1455568 60.1062516 13.1455568 60.1062516 15.3595152"></polygon>
                    <path d="M68.5136576,2.83664696 C68.5136576,2.37545674 68.375349,2.16775759 68.0520835,2.16775759 L67.4980311,2.16775759 L67.4980311,6.91867107 L68.0754078,6.91867107 C68.3982641,6.91867107 68.5136576,6.73386789 68.5136576,6.2497817 L68.5136576,2.83664696 Z M71.1910324,15.3591063 L68.9060773,15.3591063 C68.6982053,14.7597226 68.5828118,14.137034 68.5828118,12.9840585 L68.5828118,9.64002047 C68.5828118,9.20172622 68.4674183,8.94782628 68.0520835,8.94782628 L67.4980311,8.94782628 L67.4980311,15.3591063 L65.0976825,15.3591063 L65.0976825,0 L68.3291098,0 C69.5063691,0 70.8219368,0.691785336 70.8219368,2.69804458 L70.8219368,6.20358091 C70.8219368,6.91867107 70.6369799,7.51805482 70.0141823,7.9334531 C70.6369799,8.34844253 70.8910911,8.92493031 70.8910911,9.68581241 L70.8910911,12.7992553 C70.8910911,13.7678365 71.0298088,14.6211202 71.1910324,15.3591063 L71.1910324,15.3591063 Z" id="Fill-10"></path>
                    <polygon id="Fill-11" points="0.097682489 22.6233502 1.08712041 22.6233502 1.08712041 18 0.097682489 18"></polygon>
                    <polygon id="Fill-12" points="7.18261733 21.1134429 7.18261733 18 8.13277236 18 8.13277236 22.6233502 7.19816681 22.6233502 5.04824671 19.5487487 5.04824671 22.6233502 4.09768249 22.6233502 4.09768249 18 5.09489515 18"></polygon>
                    <polygon id="Fill-13" points="12.4968035 22.6233502 11.522915 22.6233502 11.522915 18.863914 10.0976825 18.863914 10.0976825 18 13.9224452 18 13.9224452 18.863914 12.4968035 18.863914"></polygon>
                    <polygon id="Fill-14" points="19.0970952 21.7594363 19.0970952 22.6233502 16.0976825 22.6233502 16.0976825 18 19.0504468 18 19.0504468 18.863914 17.0715709 18.863914 17.0715709 19.875834 18.886768 19.875834 18.886768 20.7242114 17.0715709 20.7242114 17.0715709 21.7594363"></polygon>
                    <path d="M22.0793457,20.3349799 L22.4144779,20.3349799 C22.9750775,20.3349799 23.3413087,20.1248277 23.3413087,19.587999 C23.3413087,19.0896028 22.9828523,18.8561457 22.4144779,18.8561457 C22.3207718,18.8561457 22.1575023,18.863914 22.0793457,18.8716822 L22.0793457,20.3349799 Z M22.0793457,22.7014418 L21.0976825,22.7014418 L21.0976825,18.0936282 C21.4250399,18.0388414 21.9860488,18 22.4144779,18 C23.6142429,18 24.3462961,18.5212921 24.3462961,19.5569259 C24.3462961,20.2262241 23.9645154,20.7009066 23.4661137,20.9265954 L24.7824999,22.7014418 L23.6142429,22.7014418 L22.5077747,21.144516 L22.0793457,21.144516 L22.0793457,22.7014418 Z" id="Fill-15"></path>
                    <polygon id="Fill-16" points="30.1826173 21.1134429 30.1826173 18 31.1327724 18 31.1327724 22.6233502 30.1981668 22.6233502 28.0482467 19.5487487 28.0482467 22.6233502 27.0976825 22.6233502 27.0976825 18 28.0948951 18"></polygon>
                    <path d="M35.4816632,18.9571333 L34.7884838,20.8407355 L36.1670679,20.8407355 L35.4816632,18.9571333 Z M34.4922253,21.6425033 L34.1337688,22.6233502 L33.0976825,22.6233502 L34.8895554,18 L36.0815457,18 L37.8889681,22.6233502 L36.8135988,22.6233502 L36.4555516,21.6425033 L34.4922253,21.6425033 Z" id="Fill-17"></path>
                    <polygon id="Fill-18" points="41.4968035 22.6233502 40.522915 22.6233502 40.522915 18.863914 39.0976825 18.863914 39.0976825 18 42.9224452 18 42.9224452 18.863914 41.4968035 18.863914"></polygon>
                    <polygon id="Fill-19" points="45.0976825 22.6233502 46.0871204 22.6233502 46.0871204 18 45.0976825 18"></polygon>
                    <path d="M51.5049874,18.8872188 C50.7103272,18.8872188 50.1108538,19.4788343 50.1108538,20.3893579 C50.1108538,21.3002903 50.7103272,21.8914969 51.5049874,21.8914969 C52.2996476,21.8914969 52.8995302,21.3002903 52.8995302,20.3893579 C52.8995302,19.4788343 52.2996476,18.8872188 51.5049874,18.8872188 M51.5049874,18 C52.845107,18 53.9122923,18.9804381 53.9122923,20.3893579 C53.9122923,21.7982776 52.845107,22.7791246 51.5049874,22.7791246 C50.165277,22.7791246 49.0976825,21.7982776 49.0976825,20.3893579 C49.0976825,18.9804381 50.165277,18 51.5049874,18" id="Fill-20"></path>
                    <polygon id="Fill-21" points="59.1826173 21.1134429 59.1826173 18 60.1327724 18 60.1327724 22.6233502 59.1981668 22.6233502 57.0482467 19.5487487 57.0482467 22.6233502 56.0976825 22.6233502 56.0976825 18 57.0948951 18"></polygon>
                    <path d="M64.4816632,18.9571333 L63.7884838,20.8407355 L65.1670679,20.8407355 L64.4816632,18.9571333 Z M63.4922253,21.6425033 L63.134178,22.6233502 L62.0976825,22.6233502 L63.8895554,18 L65.0815457,18 L66.8889681,22.6233502 L65.8135988,22.6233502 L65.4555516,21.6425033 L63.4922253,21.6425033 Z" id="Fill-22"></path>
                    <polygon id="Fill-23" points="69.0976825 18 70.0871204 18 70.0871204 21.7594363 71.9023175 21.7594363 71.9023175 22.6233502 69.0976825 22.6233502"></polygon>
                </g>
                <g id="Group-21">
                    <polygon id="Fill-24" fill="#B55B31" points="33.6911452 22.935898 16.8457146 39.6648995 0 22.935898 16.8457146 6.20689655"></polygon>
                    <polygon id="Fill-25" fill="#ECC55E" points="30.6306369 25.358518 28.7566825 26.7398893 32.842471 22.3205726 32.5341203 22.0143532 27.9505982 25.9108974 31.7254806 21.2113024 31.4191175 20.9070567 27.0882952 25.1391453 30.5962811 20.0896256 30.2998556 19.7955308 26.1746004 24.4294267 29.4429473 18.9445452 29.1655453 18.6687784 25.2140568 23.7845612 28.2532702 17.7630906 28.0042614 17.5155209 24.2114912 23.2084963 27.0124852 16.5305995 26.803227 16.3230695 23.1720144 22.7040519 25.7035564 15.2307175 25.5485293 15.0767619 22.0998853 22.2734836 24.3054729 13.842579 24.2228485 13.7602437 21.0002148 21.9187653 22.7676945 12.47728 19.8778296 21.6415887 20.9732412 12.100286 18.7375568 21.4433638 19.1583447 11.8490507 17.5836551 21.3243724 17.3337945 11.7241379 16.4206676 21.2846147 15.5075408 11.7241379 15.2576802 21.3243724 13.6827067 11.8493326 14.1037785 21.4433638 11.868378 12.100286 12.9637896 21.6415887 10.0744926 12.476998 11.8416884 21.9184833 8.61962251 13.7593978 8.53699815 13.8414511 10.7425857 22.2729197 7.29422565 15.075634 7.13919851 15.2293077 9.67045665 22.703488 6.03924404 16.3216597 5.83026973 16.5294716 8.63097981 23.2079324 4.83849355 17.514393 4.58920082 17.7616808 7.62841419 23.7839972 3.67720967 18.6676506 3.39952369 18.9431353 6.66787058 24.4285808 2.54261544 19.7941209 2.24647385 20.0884977 5.75417583 25.1382994 1.4236375 20.9056469 1.11727434 21.2098926 4.89187286 25.9097695 0.308350683 22.0129433 0 22.3191628 4.08550459 26.7387614 2.20331612 25.3511868 16.4206676 39.4702734"></polygon>
                    <path d="M28.2838447,28.1267666 C25.4584325,24.8429433 21.2607746,22.7586207 16.5704938,22.7586207 C11.880213,22.7586207 7.68255506,24.8429433 4.85714286,28.1267666 L16.5704938,39.7591593 L28.2838447,28.1267666 Z" id="Fill-26" fill="#496D3D"></path>
                    <polygon id="Fill-27" fill="#ECC55E" points="15.2653061 9.77622474 15.8581572 9.55910779 15.4186297 9.10851964 16.0475401 9.16914321 15.8485035 8.57334048 16.3891109 8.89845195 16.4700317 8.27586207 16.8144418 8.80230016 17.1591358 8.27586207 17.2400566 8.89845195 17.780664 8.57334048 17.5813434 9.16914321 18.2105378 9.10851964 17.7707264 9.55910779 18.3635774 9.77622474 17.7707264 9.99334168 18.2105378 10.4439298 17.5813434 10.3833063 17.780664 10.979109 17.2400566 10.6539975 17.1591358 11.2765874 16.8144418 10.7501493 16.4700317 11.2765874 16.3891109 10.6539975 15.8485035 10.979109 16.0475401 10.3833063 15.4186297 10.4439298 15.8581572 9.99334168"></polygon>
                    <polygon id="Fill-28" fill="#ECC55E" points="19.4285714 7.01760405 20.0214225 6.8004871 19.581895 6.34989895 20.2108054 6.41052252 20.0117688 5.81471979 20.5523762 6.13983126 20.633297 5.51724138 20.9777071 6.04367947 21.3224011 5.51724138 21.4033219 6.13983126 21.9439293 5.81471979 21.7446087 6.41052252 22.3738031 6.34989895 21.9339917 6.8004871 22.5268428 7.01760405 21.9339917 7.23472099 22.3738031 7.68530914 21.7446087 7.62468558 21.9439293 8.22048831 21.4033219 7.89537683 21.3224011 8.51796672 20.9777071 7.99152862 20.633297 8.51796672 20.5523762 7.89537683 20.0117688 8.22048831 20.2108054 7.62468558 19.581895 7.68530914 20.0214225 7.23472099"></polygon>
                    <polygon id="Fill-29" fill="#ECC55E" points="18.0408163 1.50036267 18.6336674 1.28324573 18.1941399 0.832657576 18.8230503 0.893281138 18.6240137 0.297478409 19.1646211 0.622589884 19.2455419 0 19.589952 0.526438095 19.934646 0 20.0155668 0.622589884 20.5561742 0.297478409 20.3568536 0.893281138 20.986048 0.832657576 20.5462366 1.28324573 21.1390876 1.50036267 20.5462366 1.71747961 20.986048 2.16806776 20.3568536 2.1074442 20.5561742 2.70324693 20.0155668 2.37813545 19.934646 3.00072534 19.589952 2.47428724 19.2455419 3.00072534 19.1646211 2.37813545 18.6240137 2.70324693 18.8230503 2.1074442 18.1941399 2.16806776 18.6336674 1.71747961"></polygon>
                </g>
            </g>
        </g>
    </g>
</svg>