<?xml version="1.0" encoding="utf-8"?>
<!-- Generator: Adobe Illustrator 18.1.0, SVG Export Plug-In . SVG Version: 6.00 Build 0)  -->
<svg version="1.1" id="Layer_1" xmlns="http://www.w3.org/2000/svg" xmlns:xlink="http://www.w3.org/1999/xlink" x="0px" y="0px"
	 width="108px" height="110px" viewBox="0 0 108 110" style="enable-background:new 0 0 108 100;padding-top:8px;" xml:space="preserve">
<style type="text/css">
	.st0{fill:#F16522;stroke:#F16522;stroke-width:0.5;}
	.st1{fill:#FFE600;}
	.st2{fill:#01B69B;}
	.st3{fill:#808080;stroke:#808080;stroke-width:0.5;}
	.st4{fill:#808080;}
	.st5{fill:#EF4E23;}
</style>
<g>
	
		<rect x="29.512" y="10.061" transform="matrix(0.7071 0.7071 -0.7071 0.7071 37.6323 -26.9818)" class="st0" width="43.749" height="43.749"/>
</g>
<g>
	<polygon class="st1" points="27.689,39.549 24.962,31.245 34.782,38.982 31.062,24.252 40.392,35.26 38.204,18.003 44.602,31.989 
		43.561,11.159 48.284,28.046 50.368,4.687 55.032,30.435 62.456,15.474 60.225,33.328 69.747,22.467 66.623,35.858 77.038,29.609 
		73.868,40.521 51.204,63.185 	"/>
</g>
<g>
	<path class="st2" d="M72.41,41.979c0,0-6.805-5.955-20.659-6.076c0,0-11.993-0.124-20.781,6.927l20.295,20.295L72.41,41.979z"/>
</g>
<path class="st3" d="M3.432,97.502c0.013,0,0.025,0,0.063,0.013c0.076,0.051,0.114,0.114,0.114,0.203v0.266H1.733v-0.266
	c0-0.089,0.038-0.152,0.127-0.19l0.051-0.013l0.101-0.038c0.152-0.063,0.19-0.139,0.19-0.342v-6.317c0-0.203-0.038-0.279-0.19-0.33
	L1.923,90.45L1.86,90.425c-0.089-0.025-0.127-0.089-0.127-0.19v-0.266h1.877v0.266c0,0.101-0.038,0.165-0.114,0.19
	c-0.025,0.013-0.051,0.013-0.051,0.013l-0.076,0.038l-0.063,0.026c-0.114,0.051-0.152,0.139-0.152,0.317v2.602v3.702
	c0,0.19,0.038,0.279,0.139,0.317l0.063,0.038L3.432,97.502z"/>
<path class="st3" d="M8.123,90.78v6.355c0,0.178,0.038,0.266,0.139,0.304l0.063,0.025l0.063,0.038c0.013,0,0.025,0,0.063,0.013
	c0.076,0.051,0.114,0.114,0.114,0.203v0.266H7.109v-0.266c0-0.089,0.038-0.152,0.114-0.19l0.063-0.013l0.089-0.038
	c0.165-0.076,0.203-0.139,0.203-0.342v-6.317c0-0.203-0.038-0.266-0.203-0.33L7.299,90.45l-0.063-0.025
	c-0.089-0.025-0.127-0.089-0.127-0.19v-0.266h1.648l2.954,5.607v-4.757c0-0.203-0.051-0.279-0.203-0.33L11.42,90.45l-0.051-0.025
	c-0.101-0.025-0.139-0.089-0.139-0.19v-0.266h1.458v0.266c0,0.101-0.038,0.165-0.127,0.19c-0.026,0.013-0.051,0.013-0.051,0.013
	l-0.076,0.038l-0.051,0.026c-0.114,0.051-0.165,0.139-0.165,0.317v7.166h-0.393L8.123,90.78z"/>
<path class="st3" d="M18.868,97.122c0,0.216,0.051,0.304,0.203,0.355l0.114,0.038c0.127,0.038,0.178,0.089,0.178,0.203v0.266h-1.902
	v-0.266c-0.013-0.114,0.026-0.165,0.165-0.203l0.114-0.038c0.139-0.051,0.203-0.139,0.203-0.342v-6.659h-0.482
	c-0.773,0-0.976,0.266-1.09,1.395c-0.051,0.456-0.127,0.155-0.368,0.155h-0.177v-2.247c0.203,0.139,0.393,0.19,0.773,0.19h3.462
	c0.495,0,0.697-0.051,0.9-0.19v2.247h-0.139c-0.253,0-0.33,0.315-0.393-0.129c-0.139-1.166-0.33-1.42-1.065-1.42h-0.495V97.122z"/>
<path class="st3" d="M25.106,97.477h1.788c0.824,0,1.078-0.266,1.23-1.293c0.076-0.583,0.152-0.71,0.406-0.71h0.19v2.511h-5.034
	v-0.266c0-0.089,0.038-0.152,0.127-0.19l0.051-0.013l0.102-0.038c0.152-0.063,0.19-0.139,0.19-0.342v-6.317
	c0-0.203-0.038-0.266-0.19-0.33l-0.089-0.038l-0.051-0.025c-0.102-0.025-0.139-0.089-0.139-0.19v-0.266h3.778
	c0.469,0,0.647-0.038,0.9-0.216v2.234h-0.178c-0.253,0-0.342,0.289-0.406-0.129c-0.139-1.065-0.406-1.369-1.205-1.369h-1.471v2.805
	h1.204c0.292,0.013,0.482-0.127,0.558-0.406l0.038-0.139c0.038-0.152,0.101-0.19,0.241-0.19h0.216v2.105h-0.165
	c-0.178,0-0.254-0.089-0.33-0.342c-0.139-0.406-0.241-0.495-0.647-0.495h-1.116V97.477z"/>
<path class="st3" d="M33.48,97.122c0,0.216,0.038,0.266,0.203,0.355l0.076,0.025c0.013,0,0.026,0,0.063,0.013
	c0.076,0.051,0.114,0.114,0.114,0.203v0.266h-1.889v-0.266c0-0.089,0.038-0.152,0.127-0.19l0.051-0.013l0.101-0.038
	c0.152-0.063,0.203-0.139,0.203-0.342v-6.317c0-0.203-0.051-0.266-0.203-0.33l-0.089-0.038l-0.051-0.025
	c-0.102-0.025-0.14-0.089-0.14-0.19v-0.266h2.561c1.382,0,2.244,0.837,2.244,2.181c0,1.141-0.697,1.448-1.991,1.689
	c0.482,0.216,0.596,0.368,1.103,1.433l0.862,1.826c0.127,0.279,0.203,0.355,0.406,0.406c0.165,0.038,0.216,0.102,0.216,0.228v0.253
	h-1.255l-1.509-3.157c-0.342-0.735-0.469-0.862-0.913-0.862H33.48V97.122z M33.873,93.457c1.319,0,1.991-0.167,1.991-1.321
	c0-1.116-0.507-1.661-1.534-1.661H33.48v2.982H33.873z"/>
<path class="st3" d="M40.988,90.78v6.355c0,0.178,0.038,0.266,0.139,0.304l0.063,0.025l0.063,0.038c0.013,0,0.025,0,0.063,0.013
	c0.076,0.051,0.114,0.114,0.114,0.203v0.266h-1.458v-0.266c0-0.089,0.038-0.152,0.114-0.19l0.063-0.013l0.089-0.038
	c0.165-0.076,0.203-0.139,0.203-0.342v-6.317c0-0.203-0.038-0.266-0.203-0.33l-0.076-0.038l-0.063-0.025
	c-0.089-0.025-0.127-0.089-0.127-0.19v-0.266h1.648l2.954,5.607v-4.757c0-0.203-0.051-0.279-0.203-0.33l-0.089-0.038l-0.051-0.025
	c-0.101-0.025-0.139-0.089-0.139-0.19v-0.266h1.458v0.266c0,0.101-0.038,0.165-0.127,0.19c-0.025,0.013-0.051,0.013-0.051,0.013
	l-0.076,0.038l-0.051,0.026c-0.114,0.051-0.165,0.139-0.165,0.317v7.166h-0.393L40.988,90.78z"/>
<path class="st3" d="M50.111,95.372l-0.406,1.407c-0.051,0.165-0.076,0.292-0.076,0.368c0,0.178,0.139,0.317,0.38,0.355
	c0.203,0.038,0.266,0.089,0.266,0.228v0.253h-1.839v-0.266c0.013-0.101,0.038-0.139,0.152-0.177l0.076-0.025
	c0.203-0.063,0.33-0.228,0.431-0.545l1.851-5.987c0.026-0.076,0.038-0.101,0.038-0.165c0-0.051,0-0.051,0-0.063l-0.026-0.089
	l-0.165-0.507c0-0.063-0.013-0.051-0.013-0.089c0-0.076,0.013-0.076,0.089-0.102l0.596-0.241c0.025-0.013,0.051-0.013,0.076-0.013
	c0.038,0,0.102,0.051,0.114,0.101l2.384,7.154c0.101,0.342,0.254,0.507,0.469,0.558l0.076,0.013c0.089,0.038,0.127,0.076,0.127,0.19
	v0.253H52.57v-0.266c0-0.101,0.038-0.152,0.152-0.177c0.266-0.076,0.38-0.177,0.38-0.38c0-0.051-0.013-0.114-0.038-0.19
	l-0.494-1.598H50.111z M51.264,91.705l-1.002,3.134h2.13L51.264,91.705z"/>
<path class="st3" d="M59.887,97.122c0,0.216,0.051,0.304,0.203,0.355l0.114,0.038c0.127,0.038,0.177,0.089,0.177,0.203v0.266H58.48
	v-0.266c-0.013-0.114,0.025-0.165,0.165-0.203l0.114-0.038c0.139-0.051,0.203-0.139,0.203-0.342v-6.659H58.48
	c-0.774,0-0.976,0.266-1.091,1.395c-0.051,0.456-0.127,0.155-0.368,0.155h-0.177v-2.247c0.203,0.139,0.393,0.19,0.774,0.19h3.462
	c0.494,0,0.697-0.051,0.9-0.19v2.247h-0.139c-0.253,0-0.33,0.315-0.393-0.129c-0.139-1.166-0.33-1.42-1.065-1.42h-0.495V97.122z"/>
<path class="st3" d="M66.863,97.502c0.013,0,0.025,0,0.063,0.013c0.076,0.051,0.114,0.114,0.114,0.203v0.266h-1.877v-0.266
	c0-0.089,0.038-0.152,0.127-0.19l0.051-0.013l0.101-0.038c0.152-0.063,0.19-0.139,0.19-0.342v-6.317c0-0.203-0.038-0.279-0.19-0.33
	l-0.089-0.038l-0.063-0.025c-0.089-0.025-0.127-0.089-0.127-0.19v-0.266h1.877v0.266c0,0.101-0.038,0.165-0.114,0.19
	c-0.025,0.013-0.051,0.013-0.051,0.013L66.8,90.475l-0.063,0.026c-0.114,0.051-0.152,0.139-0.152,0.317v2.602v3.702
	c0,0.19,0.038,0.279,0.139,0.317l0.063,0.038L66.863,97.502z"/>
<path class="st3" d="M73.635,98.187c-1.654,0-3.266-1.838-3.266-4.387c0-2.587,1.6-4.047,3.243-4.047
	c1.632,0,2.853,1.448,2.853,3.958C76.465,96.31,75.278,98.187,73.635,98.187z M73.623,90.235c-1.255,0-1.906,0.903-1.906,3.514
	c0,2.65,0.627,3.956,1.883,3.956c0.765,0,1.381-0.571,1.643-1.509c0.171-0.647,0.262-1.547,0.262-2.625
	C75.506,91.074,74.879,90.235,73.623,90.235z"/>
<path class="st3" d="M80.763,90.78v6.355c0,0.178,0.038,0.266,0.139,0.304l0.063,0.025l0.063,0.038c0.013,0,0.025,0,0.063,0.013
	c0.076,0.051,0.114,0.114,0.114,0.203v0.266h-1.458v-0.266c0-0.089,0.038-0.152,0.114-0.19l0.063-0.013l0.089-0.038
	c0.165-0.076,0.203-0.139,0.203-0.342v-6.317c0-0.203-0.038-0.266-0.203-0.33l-0.076-0.038l-0.063-0.025
	c-0.089-0.025-0.127-0.089-0.127-0.19v-0.266h1.648l2.954,5.607v-4.757c0-0.203-0.051-0.279-0.203-0.33L84.06,90.45l-0.051-0.025
	c-0.102-0.025-0.139-0.089-0.139-0.19v-0.266h1.458v0.266c0,0.101-0.038,0.165-0.127,0.19c-0.025,0.013-0.051,0.013-0.051,0.013
	l-0.076,0.038l-0.051,0.026c-0.114,0.051-0.165,0.139-0.165,0.317v7.166h-0.393L80.763,90.78z"/>
<path class="st3" d="M89.439,95.372l-0.406,1.407c-0.051,0.165-0.076,0.292-0.076,0.368c0,0.178,0.139,0.317,0.381,0.355
	c0.203,0.038,0.266,0.089,0.266,0.228v0.253h-1.838v-0.266c0.013-0.101,0.038-0.139,0.152-0.177l0.076-0.025
	c0.203-0.063,0.33-0.228,0.431-0.545l1.851-5.987c0.025-0.076,0.038-0.101,0.038-0.165c0-0.051,0-0.051,0-0.063l-0.025-0.089
	l-0.165-0.507c0-0.063-0.013-0.051-0.013-0.089c0-0.076,0.013-0.076,0.089-0.102l0.596-0.241c0.025-0.013,0.051-0.013,0.076-0.013
	c0.038,0,0.101,0.051,0.114,0.101l2.384,7.154c0.102,0.342,0.254,0.507,0.469,0.558l0.076,0.013c0.089,0.038,0.127,0.076,0.127,0.19
	v0.253h-2.143v-0.266c0-0.101,0.038-0.152,0.152-0.177c0.266-0.076,0.38-0.177,0.38-0.38c0-0.051-0.013-0.114-0.038-0.19
	l-0.495-1.598H89.439z M90.593,91.705l-1.002,3.134h2.13L90.593,91.705z"/>
<path class="st3" d="M101.066,97.984h-4.565v-0.266c0-0.089,0.038-0.152,0.114-0.19l0.063-0.013l0.089-0.038
	c0.165-0.063,0.203-0.139,0.203-0.342v-6.317c0-0.203-0.038-0.279-0.203-0.33l-0.089-0.038l-0.051-0.025
	c-0.089-0.025-0.127-0.089-0.127-0.19v-0.266h1.877v0.266c0,0.101-0.038,0.165-0.114,0.19l-0.051,0.013l-0.089,0.038
	c-0.177,0.063-0.216,0.139-0.216,0.342v6.646h1.04c0.976,0,1.382-0.393,1.509-1.496c0.063-0.495,0.127-0.609,0.393-0.609h0.216
	V97.984z"/>
<path class="st4" d="M105.455,96.137c0.383,0,0.59,0.153,0.59,0.429c0,0.146-0.054,0.23-0.199,0.337
	c0.023,0.038,0.046,0.061,0.054,0.084c0.084,0.107,0.1,0.153,0.115,0.33l0.008,0.107l0.008,0.077l0.008,0.046
	c0.008,0.038,0.015,0.069,0.038,0.123h-0.215c-0.046-0.077-0.046-0.092-0.054-0.268c-0.023-0.337-0.069-0.383-0.422-0.383h-0.391
	v0.644h-0.23v-1.526H105.455z M104.987,96.835h0.391c0.299,0.008,0.445-0.077,0.445-0.253s-0.13-0.261-0.406-0.261h-0.429V96.835z
	 M104.167,96.912c0,0.675,0.544,1.227,1.227,1.227c0.682,0,1.234-0.552,1.234-1.227c0-0.682-0.552-1.227-1.234-1.227
	C104.711,95.685,104.159,96.229,104.167,96.912z M106.843,96.912c0,0.79-0.652,1.434-1.449,1.426c-0.798,0-1.449-0.636-1.449-1.426
	c0-0.79,0.652-1.434,1.449-1.434C106.199,95.478,106.843,96.122,106.843,96.912z"/>
<path class="st4" d="M1.878,87.118V69.822h4.178c1.647,0,2.476,0.692,2.476,4.497c0,1.983-0.179,3.321-1.199,3.828v0.092
	c1.176,0.277,1.4,1.868,1.4,4.059c0,3.828-0.762,4.82-2.532,4.82H1.878z M3.491,84.282h2.207c0.963,0,1.423-0.138,1.423-2.26
	c0-1.891-0.202-2.445-1.154-2.445H3.491V84.282z M3.491,77.063H5.81c0.907,0,1.109-0.576,1.109-2.421
	c0-1.845-0.359-1.983-1.154-1.983H3.491V77.063z"/>
<path class="st4" d="M19.865,81.399v5.719h-1.613V69.822h4.29c1.837,0.092,2.543,1.268,2.543,5.189c0,2.56-0.067,4.428-1.49,4.866
	v0.092c1.143,0.208,1.423,1.476,1.423,3.921v3.229h-1.613V83.89c0-1.453-0.291-2.468-1.064-2.491H19.865z M21.993,78.562
	c1.187,0,1.479-0.484,1.479-3.021c0-2.445-0.213-2.883-1.367-2.883h-2.24v5.904H21.993z"/>
<path class="st4" d="M36.337,87.118h-1.613V69.822h1.613V87.118z"/>
<path class="st4" d="M52.091,69.822h1.613v17.296h-2.677l-3.573-14.46h-0.056l0.134,14.46h-1.613V69.822h2.666l3.596,14.46h0.045
	L52.091,69.822z"/>
<path class="st4" d="M64.563,77.772l0.304-0.893l2.8-7.057h1.983l-3.405,8.441l3.753,8.856h-2.039l-3.092-7.403l-0.304-0.893v8.295
	H62.95V69.822h1.613V77.772z"/>
<path class="st4" d="M80.787,76.971h3.932v2.721h-3.932v4.589h4.178v2.837h-5.791V69.822h5.758v2.837h-4.145V76.971z"/>
<path class="st4" d="M95.71,81.399v5.719h-1.613V69.822h4.29c1.837,0.092,2.543,1.268,2.543,5.189c0,2.56-0.067,4.428-1.49,4.866
	v0.092c1.142,0.208,1.423,1.476,1.423,3.921v3.229H99.25V83.89c0-1.453-0.291-2.468-1.064-2.491H95.71z M97.838,78.562
	c1.187,0,1.479-0.484,1.479-3.021c0-2.445-0.213-2.883-1.367-2.883h-2.24v5.904H97.838z"/>
<polygon class="st5" points="64.502,4.761 65.144,2.204 65.423,4.575 66.929,2.957 66.288,4.836 68.036,4.315 66.595,5.747 
	67.701,7.476 65.869,6.612 64.577,9.039 64.8,6.733 62.382,6.193 64.093,5.431 62.912,3.348 "/>
<polygon class="st5" points="67.041,12.219 65.618,10.964 67.181,11.196 66.902,9.29 67.924,10.341 68.91,9.011 68.799,10.74 
	70.556,9.652 69.552,11.243 71.282,11.633 69.384,12.163 69.803,14.479 68.482,12.684 66.511,14.172 "/>
<polygon class="st1" points="58.035,13.737 59.927,14.209 57.77,14.73 58.194,16.652 56.789,15.328 54.534,16.85 55.761,14.879 
	54.199,13.763 55.623,13.367 55.517,11.671 56.471,13.049 57.611,11.245 57.399,13.26 59.254,12.571 "/>
</svg>
